<svg xmlns="http://www.w3.org/2000/svg" version="1.1" xmlns:xlink="http://www.w3.org/1999/xlink" xmlns:svgjs="http://svgjs.com/svgjs" width="1000" height="1000"><rect width="1000" height="1000" rx="150" ry="150" fill="#fafafa"></rect><g transform="matrix(37.5,0,0,37.5,50,50)"><svg xmlns="http://www.w3.org/2000/svg" version="1.1" xmlns:xlink="http://www.w3.org/1999/xlink" xmlns:svgjs="http://svgjs.com/svgjs" width="24" height="24"><svg xmlns="http://www.w3.org/2000/svg" viewBox="0 0 24 24"><path d="M22 14a4 4 0 0 0-4-4H6a1 1 0 0 0-1 1v5.56A5.39 5.39 0 0 0 6.23 20H3a1 1 0 0 0 0 2H21a1 1 0 0 0 0-2H17.77a5.43 5.43 0 0 0 1.05-2.09A4 4 0 0 0 22 14zm-2 0a2 2 0 0 1-1 1.73V12.27A2 2 0 0 1 20 14zm-9.56 6A3.44 3.44 0 0 1 7 16.56V12H17v4.56A3.44 3.44 0 0 1 13.56 20zM8 7A1 1 0 0 0 9 6a2 2 0 0 1 2-2h6a1 1 0 0 0 0-2H11A4 4 0 0 0 7 6 1 1 0 0 0 8 7zM12 6a1 1 0 0 0 0 2h6a4 4 0 0 0 4-4 1 1 0 0 0-2 0 2 2 0 0 1-2 2z" data-name="4"></path></svg></svg></g></svg>